<svg width="269" height="37" viewBox="0 0 269 37" fill="none" xmlns="http://www.w3.org/2000/svg">
<g clip-path="url(#clip0_1027_2537)">
<path d="M35.7412 25.5514V11.1309H37.9387V16.8232H38.2619C38.3911 16.5702 38.585 16.3172 38.8436 16.0642C39.1021 15.8112 39.4253 15.6215 39.8777 15.4317C40.3301 15.242 40.8472 15.1787 41.4935 15.1787C42.2691 15.1787 42.98 15.3685 43.5617 15.6847C44.1434 16.0009 44.6605 16.5069 44.9836 17.1394C45.3068 17.7719 45.5007 18.5309 45.5007 19.4163V25.5514H43.3032V19.6061C43.3032 18.7206 43.1093 18.0881 42.6569 17.6454C42.2044 17.2027 41.5581 17.0129 40.7825 17.0129C39.8777 17.0129 39.1667 17.3291 38.6497 17.8984C38.1326 18.4676 37.8094 19.2898 37.8094 20.4283V25.5514H35.7412Z" fill="black"/>
<path d="M50.4123 25.8681C49.6367 25.8681 48.9904 25.7416 48.4087 25.4886C47.827 25.2356 47.3746 24.8562 46.9868 24.4134C46.6636 23.9074 46.4697 23.3382 46.4697 22.6425C46.4697 21.9468 46.6636 21.3775 46.9868 20.8715C47.3099 20.4288 47.827 20.0493 48.4087 19.8596C48.9904 19.6066 49.7013 19.4801 50.4123 19.4801H53.6439V18.8476C53.6439 18.2784 53.45 17.7724 53.1269 17.3929C52.8037 17.0134 52.222 16.8869 51.4464 16.8869C50.6708 16.8869 50.1538 17.0767 49.766 17.3929C49.3782 17.7091 49.1197 18.2151 48.9904 18.7211L46.9868 18.0886C47.1807 17.5194 47.4392 17.0134 47.827 16.5707C48.2148 16.1279 48.6672 15.7485 49.3136 15.4955C49.9599 15.2425 50.6708 15.0527 51.5757 15.0527C52.933 15.0527 53.9671 15.369 54.7427 16.0647C55.5183 16.7604 55.9061 17.7091 55.9061 18.9109V23.0852C55.9061 23.5279 56.1 23.7177 56.4877 23.7177H57.3926V25.4886H55.5829C55.0658 25.4886 54.678 25.3621 54.3549 25.1091C54.0317 24.8562 53.9025 24.5399 53.9025 24.0972V24.0339H53.6439C53.5147 24.2237 53.3854 24.4767 53.1269 24.7297C52.933 24.9826 52.5452 25.2356 52.1574 25.4254C51.7049 25.7416 51.1233 25.8681 50.4123 25.8681ZM50.7355 24.0972C51.5757 24.0972 52.2866 23.8442 52.8683 23.3382C53.3854 22.8322 53.6439 22.1997 53.6439 21.3143V21.1245H50.6062C50.0245 21.1245 49.5721 21.251 49.1843 21.504C48.8611 21.757 48.6672 22.0732 48.6672 22.5792C48.6672 23.022 48.8611 23.4015 49.1843 23.7177C49.5721 23.9707 50.0891 24.0972 50.7355 24.0972Z" fill="black"/>
<path d="M59.5907 25.552L56.1006 15.3691H58.4274L61.2065 23.9709H61.5297L64.3089 15.3691H66.6357L63.1455 25.552H59.5907Z" fill="black"/>
<path d="M68.1867 14.0407C67.7343 14.0407 67.4112 13.9142 67.1526 13.6612C66.8941 13.4082 66.7002 13.0288 66.7002 12.6493C66.7002 12.2065 66.8295 11.8903 67.1526 11.6373C67.4112 11.3843 67.7989 11.2578 68.1867 11.2578C68.6392 11.2578 68.9623 11.3843 69.2855 11.6373C69.544 11.8903 69.7379 12.2698 69.7379 12.6493C69.7379 13.092 69.6086 13.4082 69.2855 13.6612C68.9623 13.851 68.6392 14.0407 68.1867 14.0407ZM67.088 25.5518V15.3689H69.2855V25.5518H67.088Z" fill="black"/>
<path d="M70.9014 25.5514V11.1309H73.0989V25.5514H70.9014Z" fill="black"/>
<path d="M77.9465 25.8681C77.1709 25.8681 76.5246 25.7416 75.9429 25.4886C75.3612 25.2356 74.9088 24.8562 74.521 24.4134C74.1978 23.9074 74.0039 23.3382 74.0039 22.6425C74.0039 21.9468 74.1978 21.3775 74.521 20.8715C74.8441 20.4288 75.3612 20.0493 75.9429 19.8596C76.5246 19.6066 77.2355 19.4801 77.9465 19.4801H81.1135V18.8476C81.1135 18.2784 80.9196 17.7724 80.5964 17.3929C80.2732 17.0134 79.6916 16.8869 78.916 16.8869C78.1404 16.8869 77.6233 17.0767 77.2355 17.3929C76.8477 17.7091 76.5892 18.2151 76.4599 18.7211L74.4563 18.0886C74.6502 17.5194 74.9088 17.0134 75.2966 16.5707C75.6843 16.1279 76.1368 15.7485 76.7831 15.4955C77.4294 15.2425 78.1404 15.0527 79.0452 15.0527C80.4025 15.0527 81.4366 15.369 82.2122 16.0647C82.9878 16.7604 83.3756 17.7091 83.3756 18.9109V23.0852C83.3756 23.5279 83.5695 23.7177 83.9573 23.7177H84.8621V25.4886H83.2463C82.7293 25.4886 82.3415 25.3621 82.0183 25.1091C81.6952 24.8562 81.5659 24.5399 81.5659 24.0972V24.0339H81.2427C81.1135 24.2237 80.9842 24.4767 80.7257 24.7297C80.5318 24.9826 80.144 25.2356 79.7562 25.4254C79.2391 25.7416 78.6574 25.8681 77.9465 25.8681ZM78.2696 24.0972C79.1099 24.0972 79.8208 23.8442 80.4025 23.3382C80.9196 22.8322 81.1781 22.1997 81.1781 21.3143V21.1245H78.1404C77.5587 21.1245 77.1063 21.251 76.7185 21.504C76.3953 21.757 76.2014 22.0732 76.2014 22.5792C76.2014 23.022 76.3953 23.4015 76.7185 23.7177C77.1063 23.9707 77.6233 24.0972 78.2696 24.0972Z" fill="black"/>
<path d="M85.3145 25.5514V11.1309H87.512V16.8232H87.8351C87.9644 16.5702 88.1583 16.3172 88.4168 16.0642C88.6753 15.8112 88.9985 15.6215 89.4509 15.4317C89.9034 15.242 90.4204 15.1787 91.0667 15.1787C91.8423 15.1787 92.5533 15.3685 93.135 15.6847C93.7167 16.0009 94.2337 16.5069 94.5569 17.1394C94.8801 17.7719 95.074 18.5309 95.074 19.4163V25.5514H92.8764V19.6061C92.8764 18.7206 92.6825 18.0881 92.2301 17.6454C91.7777 17.2027 91.1314 17.0129 90.3558 17.0129C89.4509 17.0129 88.74 17.3291 88.2229 17.8984C87.7059 18.4676 87.3827 19.2898 87.3827 20.4283V25.5514H85.3145Z" fill="black"/>
<path d="M106.514 25.8676C105.48 25.8676 104.704 25.6779 104.187 25.3616C103.67 24.9821 103.217 24.6027 102.959 24.1599H102.636V25.6146H100.503V11.1309H102.7V16.7599H103.024C103.217 16.5069 103.411 16.1907 103.67 15.9377C103.928 15.6847 104.316 15.495 104.769 15.3052C105.221 15.1155 105.803 15.0522 106.449 15.0522C107.289 15.0522 108.13 15.242 108.841 15.6847C109.551 16.1274 110.133 16.6967 110.586 17.4556C111.038 18.2146 111.232 19.1633 111.232 20.2386V20.5548C111.232 21.63 111.038 22.5787 110.586 23.4009C110.133 24.1599 109.551 24.7924 108.841 25.1719C108.194 25.6779 107.354 25.8676 106.514 25.8676ZM105.867 23.9702C106.837 23.9702 107.612 23.6539 108.194 23.0847C108.776 22.5155 109.099 21.63 109.099 20.5548V20.365C109.099 19.2898 108.776 18.4676 108.194 17.8351C107.612 17.2659 106.837 16.9497 105.867 16.9497C104.963 16.9497 104.187 17.2659 103.541 17.8351C102.959 18.4044 102.636 19.2898 102.636 20.365V20.5548C102.636 21.63 102.959 22.5155 103.541 23.0847C104.187 23.7172 104.963 23.9702 105.867 23.9702Z" fill="black"/>
<path d="M112.396 25.5514V11.1309H114.593V25.5514H112.396Z" fill="black"/>
<path d="M121.121 25.8681C120.086 25.8681 119.182 25.6784 118.341 25.2356C117.501 24.7929 116.919 24.2237 116.402 23.4015C115.95 22.6425 115.691 21.6938 115.691 20.6185V20.3023C115.691 19.2271 115.95 18.2784 116.402 17.5194C116.855 16.7604 117.501 16.1279 118.341 15.6852C119.182 15.2425 120.086 15.0527 121.121 15.0527C122.155 15.0527 123.059 15.2425 123.9 15.6852C124.74 16.1279 125.386 16.6972 125.839 17.5194C126.291 18.2784 126.55 19.2271 126.55 20.3023V20.6185C126.55 21.6938 126.291 22.6425 125.839 23.4015C125.386 24.1604 124.74 24.7929 123.9 25.2356C123.059 25.6784 122.155 25.8681 121.121 25.8681ZM121.121 23.9707C122.09 23.9707 122.866 23.6544 123.447 23.0852C124.029 22.516 124.352 21.6305 124.352 20.6185V20.4288C124.352 19.3536 124.029 18.5314 123.447 17.9621C122.866 17.3929 122.09 17.0767 121.121 17.0767C120.151 17.0767 119.44 17.3929 118.794 17.9621C118.212 18.5314 117.889 19.4168 117.889 20.4288V20.6185C117.889 21.6938 118.212 22.516 118.794 23.0852C119.375 23.6544 120.151 23.9707 121.121 23.9707Z" fill="black"/>
<path d="M132.496 25.8674C131.527 25.8674 130.622 25.6776 129.782 25.2349C128.942 24.7922 128.36 24.2229 127.843 23.464C127.39 22.705 127.132 21.7563 127.132 20.6178V20.3648C127.132 19.2896 127.39 18.3409 127.843 17.5187C128.295 16.7597 128.942 16.1272 129.782 15.7477C130.622 15.305 131.462 15.1152 132.496 15.1152C133.466 15.1152 134.371 15.305 135.017 15.6212C135.728 16.0007 136.31 16.4434 136.697 17.0759C137.15 17.6451 137.408 18.3409 137.538 19.0366L135.405 19.4793C135.34 19.0366 135.211 18.5939 134.952 18.2144C134.758 17.8349 134.435 17.5187 133.983 17.3289C133.53 17.1392 133.078 17.0127 132.432 17.0127C131.85 17.0127 131.268 17.1392 130.816 17.3922C130.299 17.6451 129.976 18.0246 129.653 18.5306C129.394 19.0366 129.2 19.6691 129.2 20.3648V20.5546C129.2 21.2503 129.329 21.8828 129.653 22.3887C129.911 22.8947 130.299 23.2742 130.816 23.5272C131.333 23.7802 131.85 23.9067 132.432 23.9067C133.337 23.9067 134.048 23.6537 134.5 23.211C134.952 22.7682 135.276 22.1357 135.405 21.44L137.538 21.946C137.344 22.6417 137.085 23.2742 136.633 23.9067C136.18 24.4759 135.663 24.9819 134.952 25.2981C134.306 25.6776 133.466 25.8674 132.496 25.8674Z" fill="black"/>
<path d="M138.571 25.5514V11.1309H140.769V19.3531H141.092L145.164 15.3685H148.072L142.837 20.3018L148.266 25.5514H145.422L141.157 21.3138H140.833V25.5514H138.571Z" fill="black"/>
<path d="M152.79 25.8674C151.821 25.8674 150.916 25.6776 150.076 25.2349C149.235 24.7922 148.654 24.2229 148.137 23.464C147.684 22.705 147.426 21.7563 147.426 20.6178V20.3648C147.426 19.2896 147.684 18.3409 148.137 17.5187C148.589 16.7597 149.235 16.1272 150.076 15.7477C150.916 15.305 151.756 15.1152 152.79 15.1152C153.76 15.1152 154.665 15.305 155.311 15.6212C156.022 16.0007 156.604 16.4434 156.991 17.0759C157.444 17.6451 157.702 18.3409 157.832 19.0366L155.699 19.4793C155.634 19.0366 155.505 18.5939 155.246 18.2144C155.052 17.8349 154.729 17.5187 154.277 17.3289C153.889 17.1392 153.372 17.0127 152.726 17.0127C152.144 17.0127 151.562 17.1392 151.11 17.3922C150.593 17.6451 150.27 18.0246 149.946 18.5306C149.688 19.0366 149.494 19.6691 149.494 20.3648V20.5546C149.494 21.2503 149.623 21.8828 149.946 22.3887C150.205 22.8947 150.593 23.2742 151.11 23.5272C151.627 23.7802 152.144 23.9067 152.726 23.9067C153.63 23.9067 154.341 23.6537 154.794 23.211C155.246 22.7682 155.569 22.1357 155.699 21.44L157.832 21.946C157.638 22.6417 157.379 23.2742 156.927 23.9067C156.474 24.4759 155.957 24.9819 155.246 25.2981C154.665 25.6776 153.824 25.8674 152.79 25.8674Z" fill="black"/>
<path d="M158.866 25.5514V11.1309H161.064V16.8232H161.387C161.516 16.5702 161.71 16.3172 161.969 16.0642C162.227 15.8112 162.55 15.6215 163.003 15.4317C163.455 15.242 163.972 15.1787 164.618 15.1787C165.394 15.1787 166.105 15.3685 166.687 15.6847C167.268 16.0009 167.785 16.5069 168.109 17.1394C168.432 17.7719 168.626 18.5309 168.626 19.4163V25.5514H166.428V19.6061C166.428 18.7206 166.234 18.0881 165.782 17.6454C165.329 17.2027 164.683 17.0129 163.908 17.0129C163.003 17.0129 162.292 17.3291 161.775 17.8984C161.258 18.4676 160.934 19.2898 160.934 20.4283V25.5514H158.866Z" fill="black"/>
<path d="M173.537 25.8681C172.762 25.8681 172.115 25.7416 171.534 25.4886C170.952 25.2356 170.5 24.8562 170.112 24.4134C169.789 23.9074 169.595 23.3382 169.595 22.6425C169.595 21.9468 169.789 21.3775 170.112 20.8715C170.435 20.4288 170.952 20.0493 171.534 19.8596C172.115 19.6066 172.826 19.4801 173.537 19.4801H176.704V18.8476C176.704 18.2784 176.51 17.7724 176.187 17.3929C175.864 17.0134 175.282 16.8869 174.507 16.8869C173.731 16.8869 173.214 17.0767 172.826 17.3929C172.439 17.7091 172.18 18.2151 172.051 18.7211L170.047 18.0886C170.241 17.5194 170.5 17.0134 170.887 16.5707C171.275 16.1279 171.728 15.7485 172.374 15.4955C173.02 15.2425 173.731 15.0527 174.636 15.0527C175.993 15.0527 177.027 15.369 177.803 16.0647C178.579 16.7604 178.966 17.7091 178.966 18.9109V23.0852C178.966 23.5279 179.16 23.7177 179.548 23.7177H180.453V25.4886H178.837C178.32 25.4886 177.932 25.3621 177.609 25.1091C177.286 24.8562 177.157 24.5399 177.157 24.0972V24.0339H176.834C176.704 24.2237 176.575 24.4767 176.316 24.7297C176.123 24.9826 175.735 25.2356 175.347 25.4254C174.83 25.7416 174.248 25.8681 173.537 25.8681ZM173.86 24.0972C174.701 24.0972 175.412 23.8442 175.993 23.3382C176.51 22.8322 176.769 22.1997 176.769 21.3143V21.1245H173.731C173.15 21.1245 172.697 21.251 172.309 21.504C171.986 21.757 171.792 22.0732 171.792 22.5792C171.792 23.022 171.986 23.4015 172.309 23.7177C172.697 23.9707 173.214 24.0972 173.86 24.0972Z" fill="black"/>
<path d="M182.004 14.0407C181.552 14.0407 181.229 13.9142 180.97 13.6612C180.711 13.4082 180.518 13.0288 180.518 12.6493C180.518 12.2065 180.647 11.8903 180.97 11.6373C181.229 11.3843 181.616 11.2578 182.004 11.2578C182.457 11.2578 182.78 11.3843 183.103 11.6373C183.361 11.8903 183.555 12.2698 183.555 12.6493C183.555 13.092 183.426 13.4082 183.103 13.6612C182.78 13.851 182.392 14.0407 182.004 14.0407ZM180.905 25.5518V15.3689H183.103V25.5518H180.905Z" fill="black"/>
<path d="M184.719 25.5516V15.3687H186.852V16.8866H187.175C187.369 16.4439 187.692 16.0644 188.209 15.7482C188.726 15.3687 189.437 15.2422 190.471 15.2422C191.247 15.2422 191.958 15.4319 192.539 15.7482C193.121 16.0644 193.638 16.5704 193.961 17.2029C194.284 17.8354 194.478 18.5943 194.478 19.4798V25.6148H192.281V19.6063C192.281 18.7208 192.087 18.0883 191.634 17.6456C191.182 17.2029 190.536 17.0131 189.76 17.0131C188.855 17.0131 188.144 17.3294 187.627 17.8986C187.11 18.4678 186.787 19.2901 186.787 20.4285V25.5516H184.719Z" fill="black"/>
<path d="M204.173 25.8674C202.88 25.8674 201.781 25.5511 200.877 24.9819C199.972 24.4127 199.455 23.5272 199.261 22.3887L201.264 21.8828C201.394 22.452 201.588 22.8947 201.846 23.211C202.105 23.5272 202.428 23.7802 202.88 23.9067C203.268 24.0332 203.72 24.0964 204.173 24.0964C204.884 24.0964 205.401 23.9699 205.789 23.7169C206.176 23.464 206.37 23.1477 206.37 22.705C206.37 22.2622 206.176 22.0093 205.853 21.8195C205.53 21.6298 205.013 21.44 204.302 21.3135L203.591 21.187C202.88 21.0605 202.234 20.8708 201.652 20.681C201.07 20.4281 200.618 20.1118 200.295 19.7323C199.972 19.2896 199.778 18.7836 199.778 18.1511C199.778 17.2024 200.166 16.4434 200.877 15.9375C201.588 15.4315 202.557 15.1152 203.785 15.1152C204.948 15.1152 205.918 15.3682 206.693 15.8742C207.469 16.3802 207.921 17.0759 208.18 17.9614L206.176 18.5306C206.047 17.8981 205.789 17.4554 205.401 17.2024C205.013 16.9494 204.496 16.8229 203.914 16.8229C203.333 16.8229 202.88 16.9494 202.492 17.1392C202.169 17.3289 201.975 17.6451 201.975 18.0246C201.975 18.4674 202.169 18.7204 202.492 18.9101C202.816 19.0998 203.268 19.2263 203.85 19.3528L204.561 19.4793C205.336 19.6058 205.983 19.7956 206.629 19.9853C207.275 20.1751 207.728 20.4913 208.115 20.934C208.503 21.3768 208.632 21.8828 208.632 22.5785C208.632 23.5904 208.245 24.4127 207.469 24.9819C206.693 25.5511 205.465 25.8674 204.173 25.8674Z" fill="black"/>
<path d="M213.028 25.5507C212.382 25.5507 211.865 25.3609 211.542 24.9814C211.154 24.602 210.96 24.096 210.96 23.5267V17.202H208.116V15.431H210.96V12.0156H213.158V15.3678H216.26V17.1387H213.158V23.084C213.158 23.5267 213.351 23.7165 213.739 23.7165H215.937V25.4874H213.028V25.5507Z" fill="black"/>
<path d="M221.236 25.7418C220.46 25.7418 219.75 25.552 219.103 25.2358C218.457 24.9196 218.004 24.4136 217.617 23.7811C217.294 23.1486 217.1 22.3897 217.1 21.5042V15.3691H219.297V21.3144C219.297 22.1999 219.491 22.8324 219.943 23.2751C220.396 23.7179 221.042 23.9076 221.818 23.9076C222.723 23.9076 223.434 23.5914 223.951 23.0221C224.468 22.4529 224.791 21.5674 224.791 20.4922V15.3691H226.988V25.552H224.855V24.0341H224.532C224.338 24.4768 224.015 24.8563 223.498 25.1726C222.917 25.552 222.206 25.7418 221.236 25.7418Z" fill="black"/>
<path d="M232.87 25.8669C232.029 25.8669 231.189 25.6771 230.478 25.2344C229.767 24.7916 229.186 24.2224 228.733 23.4634C228.281 22.7045 228.087 21.7558 228.087 20.6173V20.301C228.087 19.2258 228.281 18.2771 228.733 17.5181C229.186 16.7592 229.767 16.1267 230.478 15.7472C231.189 15.3045 232.029 15.1147 232.87 15.1147C233.516 15.1147 234.098 15.178 234.55 15.3677C235.003 15.5575 235.39 15.7472 235.649 16.0002C235.972 16.2532 236.166 16.5062 236.295 16.8224H236.618V11.1934H238.816V25.6139H236.683V24.1592H236.36C236.101 24.6019 235.714 24.9814 235.132 25.3609C234.679 25.6771 233.904 25.8669 232.87 25.8669ZM233.516 23.9694C234.486 23.9694 235.261 23.6532 235.843 23.084C236.424 22.5147 236.748 21.6293 236.748 20.554V20.3643C236.748 19.2891 236.424 18.4669 235.843 17.8344C235.261 17.2652 234.486 16.9489 233.516 16.9489C232.611 16.9489 231.836 17.2652 231.189 17.8344C230.608 18.4036 230.284 19.2891 230.284 20.3643V20.554C230.284 21.6293 230.608 22.5147 231.189 23.084C231.836 23.7164 232.547 23.9694 233.516 23.9694Z" fill="black"/>
<path d="M241.595 14.0407C241.143 14.0407 240.819 13.9142 240.561 13.6612C240.302 13.4082 240.108 13.0288 240.108 12.6493C240.108 12.2065 240.238 11.8903 240.561 11.6373C240.819 11.3843 241.207 11.2578 241.595 11.2578C242.047 11.2578 242.371 11.3843 242.694 11.6373C242.952 11.8903 243.146 12.2698 243.146 12.6493C243.146 13.092 243.017 13.4082 242.694 13.6612C242.435 13.851 242.047 14.0407 241.595 14.0407ZM240.496 25.5518V15.3689H242.694V25.5518H240.496Z" fill="black"/>
<path d="M249.222 25.8681C248.188 25.8681 247.283 25.6784 246.443 25.2356C245.603 24.7929 245.021 24.2237 244.504 23.4015C244.051 22.6425 243.793 21.6938 243.793 20.6185V20.3023C243.793 19.2271 244.051 18.2784 244.504 17.5194C244.956 16.7604 245.603 16.1279 246.443 15.6852C247.283 15.2425 248.188 15.0527 249.222 15.0527C250.256 15.0527 251.161 15.2425 252.001 15.6852C252.842 16.1279 253.488 16.6972 253.94 17.5194C254.393 18.2784 254.651 19.2271 254.651 20.3023V20.6185C254.651 21.6938 254.393 22.6425 253.94 23.4015C253.488 24.1604 252.842 24.7929 252.001 25.2356C251.161 25.6784 250.256 25.8681 249.222 25.8681ZM249.222 23.9707C250.192 23.9707 250.967 23.6544 251.549 23.0852C252.131 22.516 252.454 21.6305 252.454 20.6185V20.4288C252.454 19.3536 252.131 18.5314 251.549 17.9621C250.967 17.3929 250.192 17.0767 249.222 17.0767C248.253 17.0767 247.542 17.3929 246.895 17.9621C246.314 18.5314 245.99 19.4168 245.99 20.4288V20.6185C245.99 21.6938 246.314 22.516 246.895 23.0852C247.477 23.6544 248.253 23.9707 249.222 23.9707Z" fill="black"/>
<path d="M260.016 25.8674C258.723 25.8674 257.624 25.5511 256.719 24.9819C255.814 24.4127 255.297 23.5272 255.104 22.3887L257.107 21.8828C257.236 22.452 257.43 22.8947 257.689 23.211C257.947 23.5272 258.27 23.7802 258.723 23.9067C259.111 24.0332 259.563 24.0964 260.016 24.0964C260.727 24.0964 261.244 23.9699 261.631 23.7169C262.019 23.464 262.213 23.1477 262.213 22.705C262.213 22.2622 262.019 22.0093 261.696 21.8195C261.373 21.6298 260.856 21.44 260.145 21.3135L259.434 21.187C258.723 21.0605 258.077 20.8708 257.495 20.681C256.913 20.4281 256.461 20.1118 256.138 19.7323C255.814 19.2896 255.621 18.7836 255.621 18.1511C255.621 17.2024 256.008 16.4434 256.719 15.9375C257.43 15.4315 258.4 15.1152 259.628 15.1152C260.791 15.1152 261.761 15.3682 262.536 15.8742C263.312 16.3802 263.764 17.0759 264.023 17.9614L262.019 18.5306C261.89 17.8981 261.631 17.4554 261.244 17.2024C260.856 16.9494 260.339 16.8229 259.757 16.8229C259.175 16.8229 258.723 16.9494 258.335 17.1392C258.012 17.3289 257.818 17.6451 257.818 18.0246C257.818 18.4674 258.012 18.7204 258.335 18.9101C258.658 19.0998 259.111 19.2263 259.692 19.3528L260.403 19.4793C261.179 19.6058 261.825 19.7956 262.472 19.9853C263.118 20.1751 263.57 20.4913 263.958 20.934C264.346 21.3768 264.475 21.8828 264.475 22.5785C264.475 23.5904 264.087 24.4127 263.312 24.9819C262.342 25.5511 261.308 25.8674 260.016 25.8674Z" fill="black"/>
<path d="M13.831 16.9504H1.35697C-0.000314053 16.9504 -0.388108 15.8752 0.38748 14.6103L7.75557 2.34017C8.59579 1.07521 10.2762 0 11.6335 0H24.1076C25.4648 0 25.8526 1.07521 25.0771 2.34017L17.709 14.547C16.8687 15.8752 15.1883 16.9504 13.831 16.9504Z" fill="#0F00D3"/>
<path d="M13.831 26.9438H1.35697C-0.000314054 26.9438 -0.388108 25.8686 0.38748 24.6036L7.75557 12.3968C8.53116 11.0686 10.2762 10.0566 11.5689 10.0566H24.0429C25.4002 10.0566 25.788 11.1319 25.0124 12.3968L17.709 24.6036C16.8687 25.8686 15.1883 26.9438 13.831 26.9438Z" fill="#004FFF"/>
<path d="M13.831 36.9993H1.35697C-0.000314054 36.9993 -0.388108 35.924 0.38748 34.6591L7.75557 22.389C8.53116 21.0608 10.2762 20.0488 11.5689 20.0488H24.0429C25.4002 20.0488 25.788 21.124 25.0124 22.389L17.709 34.5958C16.8687 35.924 15.1883 36.9993 13.831 36.9993Z" fill="url(#paint0_linear_1027_2537)"/>
<path d="M265.768 14.23C265.639 14.23 265.574 14.23 265.509 14.1668C265.445 14.1036 265.445 14.0403 265.445 13.9771V12.8386H264.928V12.5856H265.445V11.9531H265.703V12.5856H266.285V12.8386H265.703V13.9771C265.703 14.0403 265.768 14.1036 265.833 14.1036H266.22V14.3565H265.768V14.23Z" fill="black"/>
<path d="M266.479 14.2299V12.5222H266.737V12.712H266.802C266.866 12.6487 266.866 12.5855 266.996 12.5222C267.06 12.459 267.189 12.459 267.319 12.459C267.448 12.459 267.577 12.459 267.642 12.5222C267.707 12.5855 267.771 12.6487 267.836 12.712H267.9C267.965 12.6487 268.03 12.5855 268.094 12.5222C268.159 12.459 268.288 12.459 268.417 12.459C268.547 12.459 268.611 12.459 268.741 12.5222C268.805 12.5855 268.87 12.6487 268.935 12.712C268.999 12.7752 268.999 12.9017 268.999 13.0282V14.1667H268.741V13.0282C268.741 12.9017 268.676 12.8385 268.611 12.7752C268.547 12.712 268.418 12.6487 268.353 12.6487C268.224 12.6487 268.094 12.712 268.03 12.7752C267.965 12.8385 267.9 12.965 267.9 13.1547V14.1667H267.577V13.0282C267.577 12.9017 267.513 12.8385 267.448 12.7752C267.383 12.712 267.254 12.6487 267.189 12.6487C267.06 12.6487 266.931 12.712 266.866 12.7752C266.802 12.8385 266.737 12.965 266.737 13.1547V14.1667H266.479V14.2299Z" fill="black"/>
</g>
<defs>
<linearGradient id="paint0_linear_1027_2537" x1="-0.000314116" y1="28.5156" x2="25.4663" y2="28.5156" gradientUnits="userSpaceOnUse">
<stop stop-color="#004FFF"/>
<stop offset="1" stop-color="#15D300"/>
</linearGradient>
<clipPath id="clip0_1027_2537">
<rect width="269" height="37" fill="white"/>
</clipPath>
</defs>
</svg>
